# xmcd
#
# Track frame offsets:
#       150
#       54310
#       109786
#       165411
#       220904
#       274611
#
# Disc length: 4376 seconds
#
# Revision: 0
# Processed by: cddbd v1.4PL0 Copyright (c) Steve Scherf et al.
# Submitted via: WhereIsIt 3.26
#
DISCID=4a111606
DTITLE=Hank Williams - complete cd 4
DYEAR=1900
DGENRE=
TTITLE0=show on 11.56
TTITLE1=show on 12.14
TTITLE2=show on 12.16
TTITLE3=show on 12.15
TTITLE4=show on 11.51
TTITLE5=show on 11.52
EXTD=
EXTT0=
EXTT1=
EXTT2=
EXTT3=
EXTT4=
EXTT5=
PLAYORDER=
